<?xml version="1.0" standalone="no"?>
<!DOCTYPE svg PUBLIC "-//W3C//DTD SVG 20010904//EN"
 "http://www.w3.org/TR/2001/REC-SVG-20010904/DTD/svg10.dtd">
<svg version="1.0" xmlns="http://www.w3.org/2000/svg"
 width="16.000000pt" height="16.000000pt" viewBox="0 0 16.000000 16.000000"
 preserveAspectRatio="xMidYMid meet">
<metadata>
Created by potrace 1.11, written by Peter Selinger 2001-2013
</metadata>
<g transform="translate(0.000000,16.000000) scale(0.002247,-0.002247)"
fill="#000000" stroke="none">
<path d="M3979 5830 c-24 -8 -57 -23 -74 -32 -16 -9 -601 -586 -1298 -1282
-1431 -1429 -1321 -1306 -1321 -1471 -1 -136 16 -162 244 -392 l189 -190 33
29 c64 55 150 97 233 113 17 3 66 5 110 6 146 0 277 -59 382 -174 170 -187
177 -478 17 -674 l-35 -43 192 -190 c229 -227 256 -244 389 -244 160 0 37
-111 1468 1318 1389 1387 1323 1316 1338 1447 7 63 -8 142 -38 203 -11 21
-105 124 -210 227 l-190 189 -41 -36 c-137 -117 -380 -147 -547 -68 -57 28
-137 89 -180 138 -146 167 -162 436 -37 624 23 34 45 62 49 62 27 0 -13 48
-177 212 -111 111 -202 193 -228 206 -86 43 -186 51 -268 22z m-14 -771 c34
-9 117 -88 553 -523 498 -497 552 -557 552 -612 0 -79 17 -60 -883 -962 -474
-475 -875 -870 -892 -879 -42 -22 -127 -19 -167 6 -52 32 -1046 1033 -1057
1064 -18 46 -13 109 10 147 12 19 407 421 879 892 867 867 875 874 945 877 11
1 38 -4 60 -10z"/>
<path d="M3133 3989 l-772 -770 425 -425 c233 -233 427 -424 430 -424 8 0
1544 1535 1544 1542 0 9 -841 848 -849 848 -4 0 -354 -347 -778 -771z"/>
</g>
</svg>
